<svg width="160" height="36" viewBox="0 0 160 36" fill="none" xmlns="http://www.w3.org/2000/svg">
    <!-- Mini icon -->
    <line x1="18" y1="30" x2="8" y2="21" stroke="#4f46e5" stroke-width="2" stroke-linecap="round" opacity="0.5"/>
    <line x1="18" y1="30" x2="28" y2="21" stroke="#4f46e5" stroke-width="2" stroke-linecap="round" opacity="0.5"/>
    <line x1="18" y1="30" x2="18" y2="18" stroke="#4f46e5" stroke-width="2" stroke-linecap="round" opacity="0.5"/>
    <line x1="8" y1="21" x2="6" y2="12" stroke="#6366f1" stroke-width="2" stroke-linecap="round" opacity="0.6"/>
    <line x1="8" y1="21" x2="18" y2="18" stroke="#6366f1" stroke-width="2" stroke-linecap="round" opacity="0.6"/>
    <line x1="28" y1="21" x2="30" y2="12" stroke="#6366f1" stroke-width="2" stroke-linecap="round" opacity="0.6"/>
    <line x1="28" y1="21" x2="18" y2="18" stroke="#6366f1" stroke-width="2" stroke-linecap="round" opacity="0.6"/>
    <line x1="18" y1="18" x2="6" y2="12" stroke="#818cf8" stroke-width="2" stroke-linecap="round" opacity="0.7"/>
    <line x1="18" y1="18" x2="30" y2="12" stroke="#818cf8" stroke-width="2" stroke-linecap="round" opacity="0.7"/>
    <line x1="18" y1="18" x2="18" y2="6" stroke="#818cf8" stroke-width="2" stroke-linecap="round" opacity="0.7"/>
    <line x1="6" y1="12" x2="18" y2="6" stroke="#a5b4fc" stroke-width="1.5" stroke-linecap="round" opacity="0.8"/>
    <line x1="30" y1="12" x2="18" y2="6" stroke="#a5b4fc" stroke-width="1.5" stroke-linecap="round" opacity="0.8"/>
    <circle cx="18" cy="30" r="3.5" fill="#4f46e5" opacity="0.7"/>
    <circle cx="18" cy="30" r="2" fill="#6366f1"/>
    <circle cx="8" cy="21" r="3" fill="#4f46e5" opacity="0.7"/>
    <circle cx="8" cy="21" r="1.8" fill="#818cf8"/>
    <circle cx="18" cy="18" r="3.5" fill="#4f46e5" opacity="0.6"/>
    <circle cx="18" cy="18" r="2" fill="#818cf8"/>
    <circle cx="28" cy="21" r="3" fill="#4f46e5" opacity="0.7"/>
    <circle cx="28" cy="21" r="1.8" fill="#818cf8"/>
    <circle cx="6" cy="12" r="2.5" fill="#6366f1" opacity="0.8"/>
    <circle cx="6" cy="12" r="1.5" fill="#a5b4fc"/>
    <circle cx="30" cy="12" r="2.5" fill="#6366f1" opacity="0.8"/>
    <circle cx="30" cy="12" r="1.5" fill="#a5b4fc"/>
    <circle cx="18" cy="6" r="4" fill="#6366f1" opacity="0.2"/>
    <circle cx="18" cy="6" r="3" fill="#6366f1" opacity="0.8"/>
    <circle cx="18" cy="6" r="1.8" fill="#c7d2fe"/>
    <!-- Text -->
    <text x="44" y="24" font-family="-apple-system, BlinkMacSystemFont, 'Segoe UI', system-ui, sans-serif" font-size="20" font-weight="700" fill="#e1e4ed" letter-spacing="-0.5">Trellis</text>
</svg>
